HIERARCHY
ROOT root
{
	OFFSET 0.000000 0.000000 0.000000
	CHANNELS 6 Xposition Yposition Zposition Zrotation Yrotation Xrotation
	JOINT lhip
	{
		OFFSET 0.058581 -0.082280 -0.017664
		CHANNELS 3 Zrotation Yrotation Xrotation
		JOINT lknee
		{
			OFFSET 0.043451 -0.386469 0.008037
			CHANNELS 3 Zrotation Yrotation Xrotation
			JOINT lankle
			{
				OFFSET -0.014790 -0.426874 -0.037428
				CHANNELS 3 Zrotation Yrotation Xrotation
				JOINT ltoe
				{
					OFFSET 0.041054 -0.060286 0.122042
					CHANNELS 3 Zrotation Yrotation Xrotation
					End Site
					{
						OFFSET 0.000000 0.000000 0.000000
					}
				}
			}
		}
	}
	JOINT rhip
	{
		OFFSET -0.060310 -0.090513 -0.013543
		CHANNELS 3 Zrotation Yrotation Xrotation
		JOINT rknee
		{
			OFFSET -0.043257 -0.383688 -0.004843
			CHANNELS 3 Zrotation Yrotation Xrotation
			JOINT rankle
			{
				OFFSET 0.019056 -0.420046 -0.034562
				CHANNELS 3 Zrotation Yrotation Xrotation
				JOINT rtoe
				{
					OFFSET -0.034840 -0.062106 0.130323
					CHANNELS 3 Zrotation Yrotation Xrotation
					End Site
					{
						OFFSET 0.000000 0.000000 0.000000
					}
				}
			}
		}
	}
	JOINT lowerback
	{
		OFFSET 0.004439 0.124404 -0.038385
		CHANNELS 3 Zrotation Yrotation Xrotation
		JOINT upperback
		{
			OFFSET 0.004488 0.137956 0.026820
			CHANNELS 3 Zrotation Yrotation Xrotation
			JOINT chest
			{
				OFFSET -0.002265 0.056032 0.002855
				CHANNELS 3 Zrotation Yrotation Xrotation
				JOINT lowerneck
				{
					OFFSET -0.013390 0.211636 -0.033468
					CHANNELS 3 Zrotation Yrotation Xrotation
					JOINT upperneck
					{
						OFFSET 0.010113 0.088937 0.050410
						CHANNELS 3 Zrotation Yrotation Xrotation
						End Site
						{
							OFFSET 0.000000 0.000000 0.000000
						}
					}
				}
				JOINT lclavicle
				{
					OFFSET 0.071702 0.114000 -0.018898
					CHANNELS 3 Zrotation Yrotation Xrotation
					JOINT lshoulder
					{
						OFFSET 0.122921 0.045205 -0.019046
						CHANNELS 3 Zrotation Yrotation Xrotation
						JOINT lelbow
						{
							OFFSET 0.255332 -0.015649 -0.022946
							CHANNELS 3 Zrotation Yrotation Xrotation
							JOINT lwrist
							{
								OFFSET 0.265709 0.012698 -0.007375
								CHANNELS 3 Zrotation Yrotation Xrotation
								End Site
								{
									OFFSET 0.000000 0.000000 0.000000
								}
							}
						}
					}
				}
				JOINT rclavicle
				{
					OFFSET -0.082954 0.112472 -0.023707
					CHANNELS 3 Zrotation Yrotation Xrotation
					JOINT rshoulder
					{
						OFFSET -0.113228 0.046853 -0.008472
						CHANNELS 3 Zrotation Yrotation Xrotation
						JOINT relbow
						{
							OFFSET -0.260127 -0.014369 -0.031269
							CHANNELS 3 Zrotation Yrotation Xrotation
							JOINT rwrist
							{
								OFFSET -0.269108 0.006794 -0.006027
								CHANNELS 3 Zrotation Yrotation Xrotation
								End Site
								{
									OFFSET 0.000000 0.000000 0.000000
								}
							}
						}
					}
				}
			}
		}
	}
}
MOTION
Frames: 13
Frame Time: 0.033333
-2.056842 0.708833 0.998906 -31.179395 0.119585 82.766609 -5.191876 -6.820123 -0.308948 -2.977728 -16.093145 10.534484 3.725520 4.635144 -16.186885 0.000000 -0.000000 0.000000 -4.765368 -2.924331 -7.479347 -3.728591 -4.740954 46.980991 3.932256 -9.338170 -10.883327 0.000000 -0.000000 0.000000 0.904891 3.349016 14.007886 2.040508 0.989204 4.501555 1.677044 2.735022 -0.163362 -0.635856 -7.501803 -8.250086 -3.682767 -14.402952 -2.456179 -19.789321 -14.271649 -3.931634 -60.955118 -21.484920 20.538360 6.572747 -45.040808 9.976877 -3.576444 -0.266795 -18.446701 21.491243 20.209154 -0.939785 42.133750 28.304013 6.114761 -24.012962 23.285271 -19.629009 5.457283 -2.894007 -1.821275 
-2.063725 0.704156 0.998761 -22.495629 0.551745 82.469259 -4.971691 -8.510806 0.146668 -3.502756 -20.694503 10.852613 2.404256 3.516809 -16.960611 0.000000 -0.000000 0.000000 -3.175482 -0.654538 -10.026106 -1.296899 -3.397272 49.727338 4.438658 -7.359238 -13.778776 0.000000 -0.000000 0.000000 1.314395 3.224153 14.539312 1.746596 1.634561 4.128234 1.183593 3.297456 -0.852660 -0.851382 -0.753588 -9.845045 -5.208897 -10.061233 -0.273271 -19.419219 -16.801520 -4.337455 -60.744654 -22.464733 22.932214 2.899138 -48.175839 14.288147 -4.958465 -2.119581 -16.929433 21.875316 21.494286 0.389281 39.976105 27.689816 6.757742 -22.970270 27.040137 -13.376145 6.812040 -0.884251 3.620547 
-2.071198 0.698303 0.999229 -12.517280 0.749985 82.972968 -4.406986 -9.540046 -0.350960 -4.382358 -24.903128 10.987645 0.423356 1.006961 -17.913856 0.000000 -0.000000 0.000000 -2.274102 0.146612 -11.650743 -0.714293 -1.923580 46.458216 4.665194 -6.915675 -16.160435 0.000000 -0.000000 0.000000 1.569035 2.980835 14.239495 1.342804 1.167553 3.677552 0.979292 3.214038 -1.203519 -1.313461 5.651023 -10.824823 -5.803952 -4.833459 0.273760 -18.653347 -18.701458 -4.186904 -60.968045 -22.517218 24.824116 0.682849 -51.055053 19.091681 -5.088212 -3.587754 -15.891735 20.982756 22.269581 1.384092 38.762257 28.205208 6.649935 -22.410335 29.565038 -9.914139 8.024836 0.112327 4.020516 
-2.079805 0.692451 1.000136 -1.889893 0.796802 83.785713 -3.713491 -10.715384 -1.363347 -5.188262 -28.170964 11.166092 -1.410981 -1.783957 -18.522195 0.000000 -0.000000 0.000000 -1.851667 1.043510 -11.314396 -1.473816 0.883970 37.506339 5.142178 -5.257680 -17.774623 0.000000 -0.000000 0.000000 1.343061 2.601814 13.848389 1.169258 0.367179 3.349260 1.071268 2.855028 -1.674469 -1.264658 11.935638 -11.762604 -6.850573 0.578382 0.606466 -18.451676 -19.301080 -4.013575 -61.029869 -22.212112 25.995983 -1.555094 -52.704530 23.220684 -5.996253 -4.956967 -14.387877 19.720349 22.192991 1.874285 37.601318 29.338997 6.329740 -22.128630 30.565209 -9.364569 9.565684 0.018006 0.846671 
-2.088783 0.685545 1.000780 8.033879 0.511906 84.434312 -3.728387 -12.351677 -1.864265 -4.653688 -30.577090 10.739826 -1.893643 -2.167975 -19.535375 0.000000 -0.000000 0.000000 -1.863917 3.720641 -9.196848 -2.219976 7.422402 25.933538 6.035980 -2.315299 -17.757059 0.000000 -0.000000 0.000000 1.250028 3.164873 13.388213 0.860462 -0.338170 3.478718 1.427111 2.317645 -2.093348 -1.347197 17.327174 -12.547157 -7.758275 5.729765 0.372764 -18.216181 -20.055368 -3.604549 -61.204057 -21.658655 27.028240 -2.561922 -51.425774 22.680735 -5.447981 -6.368353 -15.037889 18.679093 21.702650 2.238423 35.472981 30.543385 5.207577 -22.469044 29.887111 -10.923166 9.416676 -0.213257 -1.532378 
-2.097772 0.677384 1.000369 17.653416 -0.017315 84.941141 -3.826352 -14.056170 -3.071645 -4.827817 -31.467060 11.715909 -0.975295 -1.847687 -21.011458 0.000000 -0.000000 0.000000 -2.537072 6.789462 -7.983283 -1.984358 15.196866 18.903466 7.320109 -0.228617 -16.921039 0.000000 -0.000000 0.000000 1.280959 3.392953 12.502995 0.916324 -0.386292 3.878843 1.390830 2.372485 -2.078577 -2.004585 20.484815 -12.727837 -8.731861 9.695836 0.026088 -18.706239 -20.143604 -3.188327 -61.760986 -21.386580 26.710195 -1.251481 -46.036244 20.682547 -7.037244 -6.972430 -15.928714 17.537208 20.853449 2.663284 32.431108 31.467309 3.195914 -23.512194 27.508628 -12.506279 9.959002 -0.777368 -2.825222 
-2.106595 0.667918 0.999518 27.178203 -0.346605 84.640933 -3.726591 -14.787089 -4.150981 -5.527628 -30.845155 13.505838 -0.358607 -1.536867 -21.622413 0.000000 -0.000000 0.000000 -3.223777 7.536963 -6.385075 -1.755194 17.284348 16.122698 8.171445 -0.391956 -12.491889 0.000000 -0.000000 0.000000 1.837959 3.303333 12.412371 0.958798 -0.395516 4.284762 1.494570 2.744394 -2.313963 -2.306866 21.097048 -11.403901 -9.752599 12.667740 -1.044895 -19.386263 -20.051669 -2.725163 -61.703136 -21.105744 24.510389 2.157490 -37.675403 16.821335 -7.067090 -6.423780 -14.520152 16.340944 20.348145 2.787052 28.309010 31.466304 0.104819 -23.110493 23.222303 -12.555946 6.275674 -1.500415 -0.908140 
-2.113550 0.658277 0.996849 36.549049 -0.399169 83.078500 -3.794925 -14.045930 -5.199846 -6.535006 -29.359854 17.250805 -0.710700 -1.540468 -21.808851 0.000000 -0.000000 0.000000 -3.966342 5.518763 -0.932315 -1.948278 12.799917 13.409332 7.513464 -0.571649 -14.554115 0.000000 -0.000000 0.000000 4.061361 3.253831 13.067029 0.208093 -0.732706 5.316298 1.141240 3.073475 -2.734947 -2.119828 20.091402 -8.698367 -9.966527 14.111477 -2.564898 -20.377528 -20.204299 -3.079709 -59.693380 -20.372099 20.025573 7.707783 -28.425508 11.556845 -7.414395 -4.997564 -10.490585 14.462415 20.725002 2.506074 24.557857 29.927726 -3.691974 -22.143466 19.122910 -9.873179 6.021069 -3.291535 1.630859 
-2.123477 0.649575 0.992649 44.733438 -0.004437 82.299893 -2.120837 -12.694644 -7.667056 -8.071913 -25.817823 20.734275 -0.657210 -1.157064 -22.198317 0.000000 -0.000000 0.000000 -3.324988 1.856208 4.264170 -2.526305 8.691740 7.847938 6.212783 -3.078697 -15.231273 0.000000 -0.000000 0.000000 5.939880 3.932086 13.778024 -0.244339 -0.925323 4.678757 1.382369 3.141539 -2.594982 -1.221309 17.332514 -6.656359 -8.987259 14.473483 -2.508451 -20.407089 -19.423743 -3.468955 -56.637343 -20.067570 14.657518 12.682533 -21.002514 5.829188 -2.209568 -3.715551 -7.801986 12.542772 20.881732 1.598492 21.965311 28.273907 -6.325944 -21.045832 14.370979 -7.355875 0.619471 -3.164862 5.950884 
-2.133490 0.642356 0.989569 50.944722 -0.641480 82.960723 -1.109454 -11.004049 -10.813639 -8.549245 -21.507617 22.144684 0.152081 0.164803 -22.574707 0.000000 -0.000000 0.000000 -3.646987 -2.712199 4.667680 -2.861814 8.001303 7.148883 5.549551 -4.218072 -16.126410 0.000000 -0.000000 0.000000 6.188316 5.719716 12.609083 -0.324065 -0.937832 3.994134 1.577800 2.758633 -1.802344 -0.250414 14.460048 -5.412609 -7.544662 13.317393 -2.057210 -19.698221 -17.065432 -4.665305 -51.694923 -19.308008 9.416308 14.951329 -17.453067 -0.539376 3.654057 -1.127965 -5.789766 12.114051 20.008697 0.709342 20.492991 27.727903 -8.080906 -21.808152 13.282334 -8.772692 -3.918088 -2.619270 9.569765 
-2.138855 0.633735 0.990567 56.492919 -1.397626 82.672794 -0.713812 -8.995251 -11.600312 -8.306688 -18.178272 22.218700 0.305158 1.793485 -23.034505 0.000000 -0.000000 0.000000 -4.537216 -5.222006 5.765087 -2.188867 6.802360 7.664742 5.640328 -5.459988 -15.867607 0.000000 -0.000000 0.000000 5.127673 6.727905 11.342336 0.411650 -0.949293 4.080052 2.092446 2.801923 -1.388319 0.847439 11.985880 -3.519992 -6.705507 10.703079 -1.560323 -18.378393 -14.092875 -5.506070 -46.323025 -17.988476 5.434061 15.617253 -15.363274 -4.777726 4.081885 -0.746811 -7.873353 13.082408 18.374704 -0.417013 18.811905 27.854588 -9.132085 -22.012150 14.494219 -11.565285 -3.280323 -2.620408 7.869571 
-2.139304 0.624753 0.992753 62.106573 -2.058525 81.148721 -1.138909 -7.152313 -9.387757 -6.465967 -15.014000 20.307821 0.520676 4.934209 -22.945054 0.000000 -0.000000 0.000000 -4.629958 -4.961439 8.214080 -2.011714 3.763775 8.597037 5.538559 -8.703597 -15.095056 0.000000 -0.000000 0.000000 3.741506 6.218962 10.758892 1.482615 -1.216328 3.420351 2.314214 2.972853 -0.375716 2.011734 9.810242 -0.919182 -6.205738 7.646515 -0.247859 -16.571563 -11.037608 -5.656218 -40.074600 -15.931701 1.507273 14.237739 -14.621794 -7.217542 1.836933 -1.159250 -7.254510 14.086614 17.277948 -1.438520 18.855170 28.962593 -8.793105 -21.838722 15.890612 -14.034558 -2.462917 -2.414309 6.423184 
-2.139598 0.617070 0.995169 66.184010 -1.875047 79.811293 -0.111765 -4.441666 -7.278927 -5.089244 -10.630316 19.291470 0.398144 7.803247 -22.335256 0.000000 -0.000000 0.000000 -4.043687 -5.073974 8.689173 -1.487530 1.112881 11.983701 5.499180 -9.876077 -14.097760 0.000000 -0.000000 0.000000 3.091343 5.785804 10.087628 2.227447 -1.280378 3.537768 2.539036 3.377683 0.011935 2.529730 8.556809 1.763757 -5.835222 5.250921 0.324991 -14.425959 -8.658144 -5.928587 -34.632191 -13.434163 -1.982523 14.403778 -13.335879 -8.586612 -0.761544 -1.247661 -5.884742 14.766822 16.830375 -2.516608 19.572512 30.486681 -8.420557 -21.114214 16.399536 -13.034220 1.038405 -2.536302 5.733660 
